<svg xmlns="http://www.w3.org/2000/svg" width="219.147" height="219.151" viewBox="0 0 219.147 219.151">
  <g id="backbutton" transform="translate(-0.002)">
    <g id="Group_3" data-name="Group 3">
      <path id="Path_63" data-name="Path 63" d="M109.576,219.151A109.576,109.576,0,1,0,0,109.575,109.7,109.7,0,0,0,109.576,219.151Zm0-204.151A94.576,94.576,0,1,1,15,109.574,94.682,94.682,0,0,1,109.576,15Z" fill="#fff"/>
      <path id="Path_64" data-name="Path 64" d="M94.861,156.507A7.5,7.5,0,1,0,105.466,145.9L76.646,117.08l83.457-.008a7.5,7.5,0,0,0,0-15l-83.46.008,28.827-28.825A7.5,7.5,0,0,0,94.862,62.647L53.233,104.275a7.5,7.5,0,0,0,0,10.608Z" fill="#fff"/>
    </g>
  </g>
</svg>
