<svg id="arroba" xmlns="http://www.w3.org/2000/svg" width="512" height="512" viewBox="0 0 512 512">
  <g id="Group_114" data-name="Group 114" transform="translate(212 210)">
    <g id="Group_113" data-name="Group 113">
      <path id="Path_30" data-name="Path 30" d="M257,210a45,45,0,1,0,45,45A45.05,45.05,0,0,0,257,210Z" transform="translate(-212 -210)" fill="#fff"/>
    </g>
  </g>
  <g id="Group_116" data-name="Group 116">
    <g id="Group_115" data-name="Group 115">
      <path id="Path_31" data-name="Path 31" d="M255,0C114.39,0,0,114.39,0,255S114.39,512,255,512,512,395.61,512,255,395.61,0,255,0ZM362,330a59.88,59.88,0,0,1-49.017-25.6A75.034,75.034,0,1,1,302,195.383V195a15,15,0,0,1,30,0v75a30,30,0,0,0,60,0c0-100.391-66.432-150-135-150-74.443,0-135,60.557-135,135s60.557,135,135,135a133.551,133.551,0,0,0,82.061-27.8c15.822-12.078,33.94,11.765,18.281,23.789A163.386,163.386,0,0,1,257,420c-90.981,0-165-74.019-165-165S166.019,90,257,90c82.9,0,165,61.135,165,180A60.059,60.059,0,0,1,362,330Z" fill="#fff"/>
    </g>
  </g>
</svg>
