<svg xmlns="http://www.w3.org/2000/svg" xmlns:xlink="http://www.w3.org/1999/xlink" width="176.044" height="275.133" viewBox="0 0 176.044 275.133">
  <defs>
    <filter id="Subtraction_2" x="0" y="0" width="176.044" height="275.133" filterUnits="userSpaceOnUse">
      <feOffset dy="3" input="SourceAlpha"/>
      <feGaussianBlur stdDeviation="3" result="blur"/>
      <feFlood flood-opacity="0.161"/>
      <feComposite operator="in" in2="blur"/>
      <feComposite in="SourceGraphic"/>
    </filter>
    <linearGradient id="linear-gradient" x1="0.5" y1="1" x2="0.5" gradientUnits="objectBoundingBox">
      <stop offset="0" stop-color="#268f98"/>
      <stop offset="1" stop-color="#76cbba"/>
    </linearGradient>
  </defs>
  <g id="Group_107" data-name="Group 107" transform="translate(-2764.951 699.333)">
    <g id="Group_5" data-name="Group 5" transform="translate(2773.951 -693.333)">
      <g transform="matrix(1, 0, 0, 1, -9, -6)" filter="url(#Subtraction_2)">
        <path id="Subtraction_2-2" data-name="Subtraction 2" d="M79.572,257.133A15.458,15.458,0,1,1,90.489,252.6,15.321,15.321,0,0,1,79.572,257.133Zm-.55-41.111a7.173,7.173,0,0,1-5.977-3.2L13.273,123.164a79.022,79.022,0,1,1,131.5,0L85,212.822A7.173,7.173,0,0,1,79.022,216.022Zm-.6-172.4a26.543,26.543,0,1,0,10.379,2.1A26.434,26.434,0,0,0,78.422,43.622Z" transform="translate(9 6)" fill="#fff"/>
      </g>
      <path id="Subtraction_1" data-name="Subtraction 1" d="M76.222,250.476a12.249,12.249,0,1,1,12.215-12.25A12.246,12.246,0,0,1,76.222,250.476Zm-.516-43.262a6.747,6.747,0,0,1-5.62-3.009L13.881,119.9C4.93,106.46,0,91.519,0,77.828A82.458,82.458,0,0,1,5.352,48.406,76.785,76.785,0,0,1,20.506,23.687a71.882,71.882,0,0,1,23.6-17.1A76.162,76.162,0,0,1,74.809,0c.283,0,.569,0,.851,0a77.064,77.064,0,0,1,30.7,6.2,73.419,73.419,0,0,1,24.038,16.694,75.712,75.712,0,0,1,15.673,24.346,77.932,77.932,0,0,1,5.6,29.152,72.772,72.772,0,0,1-4.008,22.7A89.21,89.21,0,0,1,137.531,119.9l-56.2,84.306A6.747,6.747,0,0,1,75.706,207.214Zm-.6-171.786a31.307,31.307,0,1,0,22.11,9.18A31.027,31.027,0,0,0,75.107,35.428Z" transform="translate(3.316 3.588)" fill="url(#linear-gradient)"/>
    </g>
  </g>
</svg>
