<svg xmlns="http://www.w3.org/2000/svg" width="899" height="899" viewBox="0 0 899 899">
  <g id="Group_111" data-name="Group 111" transform="translate(9093 1786)">
    <g id="Group_110" data-name="Group 110">
      <g id="navigation" transform="translate(-9018 -1522.998)">
        <path id="Path_21" data-name="Path 21" d="M401.918,587.06c-1.92,15.13-8.62,29.08-16.09,42.5-.37.67-.74,1.33-1.12,2H287.927c-1.72-.61-3.41-1.28-5.09-2a89.661,89.661,0,0,1-17.53-9.81c-31.48-22.68-43.6-65.54-38.12-103.94,3.39-23.87,13.87-48.23,34.26-61.08a51.491,51.491,0,0,1,36.98-6.48q.5.09.99.21c10.66,2.4,20.16,8.36,25.57,17.97,9.72,17.27,3.93,38.66-.85,57.88s-7.35,42.23,6.48,56.41a35.276,35.276,0,0,1,41.02-45.86c1,.21,1.99.45,2.97.75a32.713,32.713,0,0,1,6.75,2.83C397.668,547.55,404.267,568.53,401.918,587.06Z" transform="translate(-225.907 -262)" fill="#f2f2f2"/>
        <path id="Path_22" data-name="Path 22" d="M338.818,629.56c2.16.73,4.34,1.39,6.53,2h-9.47q-2.64-.93-5.24-2c-.38-.15-.77-.31-1.15-.47-14.29-5.99-27.45-14.99-37.4-26.97a75.65,75.65,0,0,1-11.8-19.27,87.288,87.288,0,0,1-6.04-24.66c-1.8-17.38.03-35.24,3.47-52.31a218.108,218.108,0,0,1,17.06-51.16q1.41-2.925,2.9-5.82a1.176,1.176,0,0,1,.75-.65,1.314,1.314,0,0,1,.99.21,1.545,1.545,0,0,1,.61,2.04,215.667,215.667,0,0,0-18.1,49.31c-3.92,16.7-6.15,34.17-5.38,51.33.72,16.04,4.91,31.81,14.42,44.93a90.583,90.583,0,0,0,33.93,27.84,113.938,113.938,0,0,0,13.92,5.65Z" transform="translate(-225.907 -262)" fill="#fff"/>
        <path id="Path_23" data-name="Path 23" d="M376.988,631.56h-3.67c-.52-.66-1.02-1.33-1.51-2a81.263,81.263,0,0,1-14.4-33.09,79.4,79.4,0,0,1,6.84-49.37,81.555,81.555,0,0,1,7.39-12.24c1,.21,1.99.45,2.97.75a76.721,76.721,0,0,0,.76,93.95C375.9,630.24,376.438,630.91,376.988,631.56Z" transform="translate(-225.907 -262)" fill="#fff"/>
        <path id="Path_24" data-name="Path 24" d="M564.6,448.258a10.743,10.743,0,0,0-9.6-13.384l-61.116-76.41-15.122,14.1,64.562,72.989a10.8,10.8,0,0,0,21.279,2.71Z" transform="translate(-225.907 -262)" fill="#ffb8b8"/>
        <path id="Path_25" data-name="Path 25" d="M505.6,370.6l-19.315,14.792a4.817,4.817,0,0,1-7.141-1.487l-11.761-21.2a13.376,13.376,0,1,1,21.29-16.2l17.356,16.829a4.817,4.817,0,0,1-.425,7.281Z" transform="translate(-225.907 -262)" fill="#ccc"/>
        <circle id="Ellipse_3" data-name="Ellipse 3" cx="24.561" cy="24.561" r="24.561" transform="translate(222.7 13.353)" fill="#ffb8b8"/>
        <path id="Path_26" data-name="Path 26" d="M299.688,356.506h12.26L310.78,333.56H292.686Z" transform="translate(0.001)" fill="#ffb8b8"/>
        <path id="Path_27" data-name="Path 27" d="M522.468,614.5h24.145A15.386,15.386,0,0,1,562,629.89v.5H522.469Z" transform="translate(-225.907 -262)" fill="#2f2e41"/>
        <path id="Path_28" data-name="Path 28" d="M168.975,339.148l10.43,6.443,11.067-20.135-12.622-7.9Z" transform="translate(0.001)" fill="#ffb8b8"/>
        <path id="Path_29" data-name="Path 29" d="M394.326,596.1l20.541,12.688h0a15.386,15.386,0,0,1,5,21.177l-.263.425-33.632-20.775Z" transform="translate(-225.907 -262)" fill="#2f2e41"/>
        <path id="Path_30" data-name="Path 30" d="M524.709,611.779a4.491,4.491,0,0,1-4.2-2.9L476.165,502.851a1.5,1.5,0,0,0-2.65-.322L412.592,598.5a4.483,4.483,0,0,1-5.638,1.569l-8.336-3.891a4.518,4.518,0,0,1-2.2-5.92L446.326,479c-1.09-2.651-11.72-29.876,4.613-43.326l.114-.071,44.289-19.756,1.117,33.975L540.6,602.987a4.5,4.5,0,0,1-3.179,5.6l-11.563,3.043a4.516,4.516,0,0,1-1.153.15Z" transform="translate(-225.907 -262)" fill="#2f2e41"/>
        <path id="Path_31" data-name="Path 31" d="M496.013,366.15c-1.687-6.768-4.077-13.591-7.281-16.741a40.553,40.553,0,0,1-3.315-3.651,24.274,24.274,0,0,0-7.951-6.515c1.129-.628,1.791-1.377,1.791-2.184,0-2.209-4.925-4-11-4s-11,1.791-11,4a1.952,1.952,0,0,0,.654,1.348,23.408,23.408,0,0,0-14.472,19.515c-1.421,15.216-1.836,34.665,3.143,46.968a45.291,45.291,0,0,1,.934,31.919,3.994,3.994,0,0,0,5.289,4.969l43.947-17.709a4,4,0,0,0,2.5-3.71v-26.9a112.948,112.948,0,0,0-3.244-27.312Z" transform="translate(-225.907 -262)" fill="#ccc"/>
        <path id="Path_32" data-name="Path 32" d="M411.928,476.93a10.743,10.743,0,0,0,7.445-14.694l34.385-90.676-17.437-4.5-31.8,89.742a10.8,10.8,0,0,0,7.412,20.13Z" transform="translate(-225.907 -262)" fill="#ffb8b8"/>
        <path id="Path_33" data-name="Path 33" d="M453.614,388.765l-22.033-10.314a4.817,4.817,0,0,1-1.974-7.022L443,351.207a13.378,13.378,0,0,1,24.2,11.413l-6.924,23.163a4.817,4.817,0,0,1-6.657,2.982Z" transform="translate(-225.907 -262)" fill="#ccc"/>
        <path id="Path_34" data-name="Path 34" d="M495.727,293.869a5.6,5.6,0,0,0,3.222-.582c1.812-1.186,1.633-3.881,1.02-5.957a31,31,0,0,0-21.352-20.779c-3.5-.929-7.921-.893-9.921,2.121a25.258,25.258,0,0,0-32.677,4.014c-4.1,4.5-6.453,10.376-7.672,16.345-2.1,10.282-11.087,31.492-6.108,40.73,3.313,6.147,18.56,1.358,25.01,4.035s14.289,2.377,20.018-1.616,8.733-11.88,6.282-18.415c-.95-2.528-2.6-4.724-3.9-7.091s-2.271-5.1-1.691-7.742C468.865,294.824,488.251,293.715,495.727,293.869Z" transform="translate(-225.907 -262)" fill="#2f2e41"/>
        <path id="Path_35" data-name="Path 35" d="M702.907,630.56a1,1,0,0,1-1,1h-475a1,1,0,0,1,0-2h475A1,1,0,0,1,702.907,630.56Z" transform="translate(-225.907 -262)" fill="#3f3d56"/>
        <ellipse id="Ellipse_4" data-name="Ellipse 4" cx="35" cy="6" rx="35" ry="6" transform="translate(513.85 361.56)" fill="#fff"/>
        <path id="Path_36" data-name="Path 36" d="M973.093,632h-134a1,1,0,0,1,0-2h134a1,1,0,0,1,0,2Z" transform="translate(-225.907 -262)" fill="#3f3d56"/>
        <path id="Path_37" data-name="Path 37" d="M748.742,369.265A47.634,47.634,0,0,1,786.356,322.7a47.628,47.628,0,1,0,.014,93.132,47.639,47.639,0,0,1-37.628-46.568Z" transform="translate(-225.907 -262)" fill="#fff"/>
        <path id="Path_38" data-name="Path 38" d="M696.908,369.265A106.472,106.472,0,0,1,790.352,263.6,106.5,106.5,0,0,0,670.908,369.265c0,47.756,70.231,182.425,96.608,231.32a11.19,11.19,0,0,0,19.706,0c.987-1.83,2.043-3.794,3.147-5.855C761.974,541.717,696.908,415.234,696.908,369.265Z" transform="translate(-225.907 -262)" fill="#fff"/>
        <path id="Path_39" data-name="Path 39" d="M777.461,607.667a12.027,12.027,0,0,1-10.732-6.411C737.645,547.345,670,416.837,670,369.462a107.462,107.462,0,1,1,214.924,0c0,47.38-67.645,177.884-96.729,231.794A12.027,12.027,0,0,1,777.461,607.667Zm0-343.667A105.581,105.581,0,0,0,672,369.462c0,46.92,67.477,177.066,96.488,230.845a10.191,10.191,0,0,0,17.946,0c29.012-53.776,96.489-183.92,96.489-230.845A105.581,105.581,0,0,0,777.462,264Z" transform="translate(-225.907 -262)" fill="#3f3d56"/>
        <path id="Path_40" data-name="Path 40" d="M777.462,418.089a48.628,48.628,0,1,1,48.627-48.627,48.628,48.628,0,0,1-48.627,48.627Zm0-95.255a46.628,46.628,0,1,0,46.627,46.628,46.628,46.628,0,0,0-46.627-46.628Z" transform="translate(-225.907 -262)" fill="#3f3d56"/>
      </g>
      <circle id="Ellipse_5" data-name="Ellipse 5" cx="449.5" cy="449.5" r="449.5" transform="translate(-9093 -1786)" fill="none"/>
      <g id="navigation-2" data-name="navigation" transform="translate(-9018 -1522.998)">
        <path id="Path_21-2" data-name="Path 21" d="M401.918,587.06c-1.92,15.13-8.62,29.08-16.09,42.5-.37.67-.74,1.33-1.12,2H287.927c-1.72-.61-3.41-1.28-5.09-2a89.661,89.661,0,0,1-17.53-9.81c-31.48-22.68-43.6-65.54-38.12-103.94,3.39-23.87,13.87-48.23,34.26-61.08a51.491,51.491,0,0,1,36.98-6.48q.5.09.99.21c10.66,2.4,20.16,8.36,25.57,17.97,9.72,17.27,3.93,38.66-.85,57.88s-7.35,42.23,6.48,56.41a35.276,35.276,0,0,1,41.02-45.86c1,.21,1.99.45,2.97.75a32.713,32.713,0,0,1,6.75,2.83C397.668,547.55,404.267,568.53,401.918,587.06Z" transform="translate(-225.907 -262)" fill="#007086"/>
        <path id="Path_22-2" data-name="Path 22" d="M338.818,629.56c2.16.73,4.34,1.39,6.53,2h-9.47q-2.64-.93-5.24-2c-.38-.15-.77-.31-1.15-.47-14.29-5.99-27.45-14.99-37.4-26.97a75.65,75.65,0,0,1-11.8-19.27,87.288,87.288,0,0,1-6.04-24.66c-1.8-17.38.03-35.24,3.47-52.31a218.108,218.108,0,0,1,17.06-51.16q1.41-2.925,2.9-5.82a1.176,1.176,0,0,1,.75-.65,1.314,1.314,0,0,1,.99.21,1.545,1.545,0,0,1,.61,2.04,215.667,215.667,0,0,0-18.1,49.31c-3.92,16.7-6.15,34.17-5.38,51.33.72,16.04,4.91,31.81,14.42,44.93a90.583,90.583,0,0,0,33.93,27.84,113.938,113.938,0,0,0,13.92,5.65Z" transform="translate(-225.907 -262)" fill="#fff"/>
        <path id="Path_23-2" data-name="Path 23" d="M376.988,631.56h-3.67c-.52-.66-1.02-1.33-1.51-2a81.263,81.263,0,0,1-14.4-33.09,79.4,79.4,0,0,1,6.84-49.37,81.555,81.555,0,0,1,7.39-12.24c1,.21,1.99.45,2.97.75a76.721,76.721,0,0,0,.76,93.95C375.9,630.24,376.438,630.91,376.988,631.56Z" transform="translate(-225.907 -262)" fill="#fff"/>
        <path id="Path_24-2" data-name="Path 24" d="M564.6,448.258a10.743,10.743,0,0,0-9.6-13.384l-61.116-76.41-15.122,14.1,64.562,72.989a10.8,10.8,0,0,0,21.279,2.71Z" transform="translate(-225.907 -262)" fill="#ffb8b8"/>
        <path id="Path_25-2" data-name="Path 25" d="M505.6,370.6l-19.315,14.792a4.817,4.817,0,0,1-7.141-1.487l-11.761-21.2a13.376,13.376,0,1,1,21.29-16.2l17.356,16.829a4.817,4.817,0,0,1-.425,7.281Z" transform="translate(-225.907 -262)" fill="#ccc"/>
        <circle id="Ellipse_3-2" data-name="Ellipse 3" cx="24.561" cy="24.561" r="24.561" transform="translate(222.7 13.353)" fill="#ffb8b8"/>
        <path id="Path_26-2" data-name="Path 26" d="M299.688,356.506h12.26L310.78,333.56H292.686Z" transform="translate(0.001)" fill="#ffb8b8"/>
        <path id="Path_27-2" data-name="Path 27" d="M522.468,614.5h24.145A15.386,15.386,0,0,1,562,629.89v.5H522.469Z" transform="translate(-225.907 -262)" fill="#2f2e41"/>
        <path id="Path_28-2" data-name="Path 28" d="M168.975,339.148l10.43,6.443,11.067-20.135-12.622-7.9Z" transform="translate(0.001)" fill="#ffb8b8"/>
        <path id="Path_29-2" data-name="Path 29" d="M394.326,596.1l20.541,12.688h0a15.386,15.386,0,0,1,5,21.177l-.263.425-33.632-20.775Z" transform="translate(-225.907 -262)" fill="#2f2e41"/>
        <path id="Path_30-2" data-name="Path 30" d="M524.709,611.779a4.491,4.491,0,0,1-4.2-2.9L476.165,502.851a1.5,1.5,0,0,0-2.65-.322L412.592,598.5a4.483,4.483,0,0,1-5.638,1.569l-8.336-3.891a4.518,4.518,0,0,1-2.2-5.92L446.326,479c-1.09-2.651-11.72-29.876,4.613-43.326l.114-.071,44.289-19.756,1.117,33.975L540.6,602.987a4.5,4.5,0,0,1-3.179,5.6l-11.563,3.043a4.516,4.516,0,0,1-1.153.15Z" transform="translate(-225.907 -262)" fill="#2f2e41"/>
        <path id="Path_31-2" data-name="Path 31" d="M496.013,366.15c-1.687-6.768-4.077-13.591-7.281-16.741a40.553,40.553,0,0,1-3.315-3.651,24.274,24.274,0,0,0-7.951-6.515c1.129-.628,1.791-1.377,1.791-2.184,0-2.209-4.925-4-11-4s-11,1.791-11,4a1.952,1.952,0,0,0,.654,1.348,23.408,23.408,0,0,0-14.472,19.515c-1.421,15.216-1.836,34.665,3.143,46.968a45.291,45.291,0,0,1,.934,31.919,3.994,3.994,0,0,0,5.289,4.969l43.947-17.709a4,4,0,0,0,2.5-3.71v-26.9a112.948,112.948,0,0,0-3.244-27.312Z" transform="translate(-225.907 -262)" fill="#ccc"/>
        <path id="Path_32-2" data-name="Path 32" d="M411.928,476.93a10.743,10.743,0,0,0,7.445-14.694l34.385-90.676-17.437-4.5-31.8,89.742a10.8,10.8,0,0,0,7.412,20.13Z" transform="translate(-225.907 -262)" fill="#ffb8b8"/>
        <path id="Path_33-2" data-name="Path 33" d="M453.614,388.765l-22.033-10.314a4.817,4.817,0,0,1-1.974-7.022L443,351.207a13.378,13.378,0,0,1,24.2,11.413l-6.924,23.163a4.817,4.817,0,0,1-6.657,2.982Z" transform="translate(-225.907 -262)" fill="#ccc"/>
        <path id="Path_34-2" data-name="Path 34" d="M495.727,293.869a5.6,5.6,0,0,0,3.222-.582c1.812-1.186,1.633-3.881,1.02-5.957a31,31,0,0,0-21.352-20.779c-3.5-.929-7.921-.893-9.921,2.121a25.258,25.258,0,0,0-32.677,4.014c-4.1,4.5-6.453,10.376-7.672,16.345-2.1,10.282-11.087,31.492-6.108,40.73,3.313,6.147,18.56,1.358,25.01,4.035s14.289,2.377,20.018-1.616,8.733-11.88,6.282-18.415c-.95-2.528-2.6-4.724-3.9-7.091s-2.271-5.1-1.691-7.742C468.865,294.824,488.251,293.715,495.727,293.869Z" transform="translate(-225.907 -262)" fill="#2f2e41"/>
        <path id="Path_35-2" data-name="Path 35" d="M702.907,630.56a1,1,0,0,1-1,1h-475a1,1,0,0,1,0-2h475A1,1,0,0,1,702.907,630.56Z" transform="translate(-225.907 -262)" fill="#3f3d56"/>
        <ellipse id="Ellipse_4-2" data-name="Ellipse 4" cx="35" cy="6" rx="35" ry="6" transform="translate(513.85 361.56)" fill="#268f98"/>
        <path id="Path_36-2" data-name="Path 36" d="M973.093,632h-134a1,1,0,0,1,0-2h134a1,1,0,0,1,0,2Z" transform="translate(-225.907 -262)" fill="#3f3d56"/>
        <path id="Path_37-2" data-name="Path 37" d="M748.742,369.265A47.634,47.634,0,0,1,786.356,322.7a47.628,47.628,0,1,0,.014,93.132,47.639,47.639,0,0,1-37.628-46.568Z" transform="translate(-225.907 -262)" fill="#268f98"/>
        <path id="Path_38-2" data-name="Path 38" d="M696.908,369.265A106.472,106.472,0,0,1,790.352,263.6,106.5,106.5,0,0,0,670.908,369.265c0,47.756,70.231,182.425,96.608,231.32a11.19,11.19,0,0,0,19.706,0c.987-1.83,2.043-3.794,3.147-5.855C761.974,541.717,696.908,415.234,696.908,369.265Z" transform="translate(-225.907 -262)" fill="#268f98"/>
        <path id="Path_39-2" data-name="Path 39" d="M777.461,607.667a12.027,12.027,0,0,1-10.732-6.411C737.645,547.345,670,416.837,670,369.462a107.462,107.462,0,1,1,214.924,0c0,47.38-67.645,177.884-96.729,231.794A12.027,12.027,0,0,1,777.461,607.667Zm0-343.667A105.581,105.581,0,0,0,672,369.462c0,46.92,67.477,177.066,96.488,230.845a10.191,10.191,0,0,0,17.946,0c29.012-53.776,96.489-183.92,96.489-230.845A105.581,105.581,0,0,0,777.462,264Z" transform="translate(-225.907 -262)" fill="#3f3d56"/>
        <path id="Path_40-2" data-name="Path 40" d="M777.462,418.089a48.628,48.628,0,1,1,48.627-48.627,48.628,48.628,0,0,1-48.627,48.627Zm0-95.255a46.628,46.628,0,1,0,46.627,46.628,46.628,46.628,0,0,0-46.627-46.628Z" transform="translate(-225.907 -262)" fill="#3f3d56"/>
      </g>
    </g>
  </g>
</svg>
