<svg xmlns="http://www.w3.org/2000/svg" width="512" height="512" viewBox="0 0 512 512">
  <g id="phone-call" transform="translate(0 0)">
    <g id="Group_112" data-name="Group 112" transform="translate(0 0)">
      <path id="Path_29" data-name="Path 29" d="M436.991,74.953C337-25.006,174.912-24.982,74.953,75.008s-99.935,262.08.055,362.038,262.08,99.935,362.038-.055a256,256,0,0,0-.055-362.038ZM387.7,356.6c-.011.011-.022.023-.034.034v-.085L374.7,369.439a68.267,68.267,0,0,1-64.427,18.432,226.834,226.834,0,0,1-65.877-29.525,304.373,304.373,0,0,1-51.968-41.9,306.71,306.71,0,0,1-38.827-47.1,238.906,238.906,0,0,1-29.184-59.051,68.265,68.265,0,0,1,17.067-69.717l15.189-15.189A10.837,10.837,0,0,1,172,125.352l.034.034,47.957,47.957a10.837,10.837,0,0,1,.034,15.326l-.034.034-28.16,28.16a22.954,22.954,0,0,0-2.389,29.867,329.332,329.332,0,0,0,33.707,39.339,327.312,327.312,0,0,0,44.373,37.291,23.125,23.125,0,0,0,29.525-2.56l27.221-27.648a10.837,10.837,0,0,1,15.326-.034l.034.034,48.043,48.128A10.834,10.834,0,0,1,387.7,356.6Z" transform="translate(0 0)" fill="#fff"/>
    </g>
  </g>
</svg>
