<svg xmlns="http://www.w3.org/2000/svg" width="598.29" height="231.009" viewBox="0 0 598.29 231.009">
  <g id="Group_103" data-name="Group 103" transform="translate(0 -0.001)">
    <g id="Group_86" data-name="Group 86" transform="translate(0 0.001)">
      <g id="Group_85" data-name="Group 85" transform="translate(0)">
        <g id="Group_84" data-name="Group 84">
          <g id="Group_83" data-name="Group 83">
            <g id="Group_82" data-name="Group 82">
              <g id="Group_81" data-name="Group 81">
                <g id="Group_80" data-name="Group 80">
                  <g id="Group_79" data-name="Group 79">
                    <path id="Path_21" data-name="Path 21" d="M651.045,762.3v52.256a15.931,15.931,0,0,1-31.863,0V762.3a41.708,41.708,0,0,0,31.863,0Z" transform="translate(-604.227 -599.48)" fill="#fff"/>
                    <path id="Path_22" data-name="Path 22" d="M702.279,546.069a41.7,41.7,0,0,0-26.332,24.736h0c-.332-.015-.664-.023-1-.023a23.9,23.9,0,0,0-23.9,23.9v30.2a41.708,41.708,0,0,0-31.863,0v-30.2a55.775,55.775,0,0,1,83.1-48.611Z" transform="translate(-604.227 -538.919)" fill="#fff"/>
                    <path id="Path_23" data-name="Path 23" d="M869.619,554.85V625.08a41.718,41.718,0,0,0-31.863-.393V554.85a15.931,15.931,0,1,1,31.863,0Z" transform="translate(-663.484 -538.919)" fill="#fff"/>
                    <path id="Path_24" data-name="Path 24" d="M839.99,733.255v12.626a55.761,55.761,0,1,1-111.521,0V655.9a41.706,41.706,0,0,0,31.863,0v89.985a23.9,23.9,0,0,0,47.8,0V733.648a41.717,41.717,0,0,0,31.863-.393Z" transform="translate(-633.856 -570.632)" fill="#fff"/>
                    <path id="Path_25" data-name="Path 25" d="M660.437,698.09a30.874,30.874,0,1,1-14.955-26.465A30.87,30.87,0,0,1,660.437,698.09Z" transform="translate(-598.665 -573.698)" fill="#fff"/>
                    <path id="Path_26" data-name="Path 26" d="M769.724,591.684a30.892,30.892,0,1,1-31.667-30.875c.26-.008.52-.011.781-.011A30.887,30.887,0,0,1,769.724,591.684Z" transform="translate(-628.293 -544.851)" fill="#fff"/>
                    <path id="Path_27" data-name="Path 27" d="M878.359,698.09a30.88,30.88,0,1,1-14.479-26.171A30.854,30.854,0,0,1,878.359,698.09Z" transform="translate(-657.745 -573.698)" fill="#fff"/>
                    <text id="Needs_In_Transit" data-name="Needs 
In Transit" transform="translate(268.289 86.625)" fill="#fff" font-size="80" font-family="Helvetica"><tspan x="0" y="0">Needs </tspan><tspan x="0" y="96">In Transit</tspan></text>
                  </g>
                </g>
              </g>
            </g>
          </g>
        </g>
      </g>
    </g>
  </g>
</svg>
