<svg xmlns="http://www.w3.org/2000/svg" width="1995.626" height="2089.659" viewBox="0 0 1995.626 2089.659">
  <g id="Logo_V3_Color" data-name="Logo V3 Color" transform="translate(-14324.498 -17095.341)">
    <g id="Group_86" data-name="Group 86">
      <g id="Group_85" data-name="Group 85">
        <g id="Group_84" data-name="Group 84">
          <g id="Group_83" data-name="Group 83">
            <g id="Group_82" data-name="Group 82">
              <g id="Group_81" data-name="Group 81">
                <g id="Group_80" data-name="Group 80">
                  <g id="Group_79" data-name="Group 79">
                    <path id="Path_21" data-name="Path 21" d="M907.406,762.3V1235a144.112,144.112,0,0,1-288.224,0V762.3a377.281,377.281,0,0,0,288.224,0Z" transform="translate(13840.595 17805.887)" fill="#268f98"/>
                    <path id="Path_22" data-name="Path 22" d="M1370.856,603.6a377.218,377.218,0,0,0-238.193,223.76h-.026c-3-.138-6.007-.211-9.053-.211-119.4,0-216.178,96.771-216.178,216.172v273.191a377.281,377.281,0,0,0-288.224,0V1043.321c0-278.578,225.824-504.4,504.4-504.4A501.932,501.932,0,0,1,1370.856,603.6Z" transform="translate(13840.595 16556.422)" fill="#268f98"/>
                    <path id="Path_23" data-name="Path 23" d="M1125.98,683.031v635.281a377.375,377.375,0,0,0-288.224-3.554V683.031a144.112,144.112,0,1,1,288.224,0Z" transform="translate(15063.166 16556.422)" fill="#268f98"/>
                    <path id="Path_24" data-name="Path 24" d="M1737.266,1355.667v114.211c0,278.578-225.824,504.4-504.4,504.4s-504.4-225.824-504.4-504.4V655.9a377.274,377.274,0,0,0,288.224,0v813.981c0,119.4,96.778,216.171,216.178,216.171s216.171-96.771,216.171-216.171V1359.221a377.374,377.374,0,0,0,288.224-3.554Z" transform="translate(14451.879 17210.721)" fill="#268f98"/>
                    <path id="Path_25" data-name="Path 25" d="M1157.443,946.593a279.282,279.282,0,1,1-135.277-239.4A279.239,279.239,0,0,1,1157.443,946.593Z" transform="translate(13725.833 17273.971)" fill="#76cbba"/>
                    <path id="Path_26" data-name="Path 26" d="M1266.73,840.187A279.389,279.389,0,1,1,730.145,730.875C771.815,632.95,867.8,563.679,980.279,560.9c2.353-.072,4.707-.1,7.061-.1C1141.64,560.8,1266.73,685.888,1266.73,840.187Z" transform="translate(14337.121 16678.799)" fill="#76cbba"/>
                    <path id="Path_27" data-name="Path 27" d="M1375.365,946.593a279.334,279.334,0,1,1-130.978-236.736A279.1,279.1,0,0,1,1375.365,946.593Z" transform="translate(14944.76 17273.971)" fill="#76cbba"/>
                  </g>
                </g>
              </g>
            </g>
          </g>
        </g>
      </g>
    </g>
  </g>
</svg>
